#!OML:ASF F:\VICON\USERDATA\INSTALL\rory3\rory3.ASF
:FULLY-SPECIFIED
:DEGREES
499
root 0.969505 18.0008 -1.12728 2.94083 -30.2105 1.49756
lowerback 2.0551 -0.064139 -3.60219
upperback 1.66498 -0.146679 1.48358
thorax 0.571123 -0.116239 3.54953
lowerneck -14.2788 2.61567 -10.3527
upperneck 32.4379 5.99873 1.74425
head 12.875 1.50275 3.32205
rclavicle 9.0944e-015 -1.90833e-014
rhumerus -26.6507 13.9765 -83.5728
rradius 95.1482
rwrist 11.3997
rhand -23.0327 10.9738
rfingers 7.12502
rthumb 3.41151 -18.9787
lclavicle 9.0944e-015 -1.90833e-014
lhumerus -19.6959 -28.3958 90.0935
lradius 97.2331
lwrist 11.5698
lhand -27.1786 34.3241
lfingers 7.12502
lthumb -0.592558 64.303
rfemur -12.931 3.23398 10.4596
rtibia 22.8765
rfoot -13.6628 -11.2563
rtoes 3.46098
lfemur -5.90217 1.75341 -23.4232
ltibia 16.1459
lfoot -9.43901 5.39074
ltoes -11.4187
500
root 0.969718 18.0019 -1.12125 2.90327 -30.1379 1.51367
lowerback 1.95048 -0.0626946 -3.53911
upperback 1.69253 -0.140091 1.45068
thorax 0.657044 -0.114418 3.47952
lowerneck -14.3952 2.57796 -10.3111
upperneck 32.548 5.95844 1.73184
head 12.9513 1.48063 3.31251
rclavicle -3.79679e-014 -3.18055e-015
rhumerus -25.9805 14.5637 -83.6374
rradius 96.3823
rwrist 11.6537
rhand -22.8332 10.8492
rfingers 7.12502
rthumb 3.60419 -19.1001
lclavicle -3.79679e-014 -3.18055e-015
lhumerus -19.8252 -28.3525 90.3268
lradius 96.423
lwrist 11.4899
lhand -28.0303 33.7547
lfingers 7.12502
lthumb -1.41517 63.7297
rfemur -12.8594 3.18425 10.4343
rtibia 22.8986
rfoot -13.7704 -11.2059
rtoes 3.91027
lfemur -5.83535 1.61758 -23.4504
ltibia 16.1103
lfoot -9.43436 5.4533
ltoes -11.5864
501
root 0.969834 18.0006 -1.11698 2.83189 -30.0547 1.58831
lowerback 1.9054 -0.0564809 -3.55419
upperback 1.68054 -0.13028 1.41143
thorax 0.669049 -0.109393 3.44724
lowerneck -14.3855 2.55559 -10.2562
upperneck 32.5815 5.91803 1.71028
head 12.969 1.46479 3.29042
rclavicle 9.59136e-015 1.78906e-014
rhumerus -25.4708 15.2248 -83.6748
rradius 97.6896
rwrist 11.9723
rhand -22.822 10.6649
rfingers 7.12502
rthumb 3.61498 -19.2842
lclavicle 9.59136e-015 1.78906e-014
lhumerus -20.0109 -28.3789 90.5671
lradius 95.6666
lwrist 11.484
lhand -28.4207 33.3499
lfingers 7.12502
lthumb -1.79218 63.3222
rfemur -12.792 3.11217 10.3521
rtibia 22.9152
rfoot -13.8126 -11.1585
rtoes 3.86758
lfemur -5.77465 1.6268 -23.5419
ltibia 16.0722
lfoot -9.379 5.42319
ltoes -12.0662
502
root 0.969855 17.9996 -1.11864 2.80223 -29.9354 1.59898
lowerback 2.00908 -0.0551176 -3.58844
upperback 1.57268 -0.132934 1.43135
thorax 0.500526 -0.105656 3.48754
lowerneck -14.2286 2.52527 -10.2525
upperneck 32.6184 5.87055 1.65285
head 12.9584 1.43547 3.25741
rclavicle -1.34677e-014 -6.75868e-015
rhumerus -24.7815 15.9144 -83.7198
rradius 98.7506
rwrist 12.3544
rhand -22.6886 10.6528
rfingers 7.12502
rthumb 3.74385 -19.2941
lclavicle -1.34677e-014 -6.75868e-015
lhumerus -20.4112 -28.3717 90.9506
lradius 94.9772
lwrist 11.4604
lhand -28.0405 33.1159
lfingers 7.12502
lthumb -1.425 63.0909
rfemur -12.7335 3.04096 10.3448
rtibia 22.9299
rfoot -13.9227 -11.1251
rtoes 4.06438
lfemur -5.73967 1.73129 -23.5516
ltibia 16.0379
lfoot -9.34632 5.27097
ltoes -12.4582
503
root 0.96983 18.0004 -1.11861 2.83601 -29.8071 1.51352
lowerback 2.18721 -0.0643961 -3.59739
upperback 1.38419 -0.152431 1.52979
thorax 0.209123 -0.106373 3.59543
lowerneck -13.9593 2.51536 -10.1877
upperneck 32.6351 5.86983 1.43783
head 12.9225 1.41458 3.15538
rclavicle -4.69132e-014 1.94809e-014
rhumerus -23.9695 16.6916 -83.7136
rradius 99.6492
rwrist 12.7637
rhand -22.4182 10.658
rfingers 7.12502
rthumb 4.00489 -19.2841
lclavicle -4.69132e-014 1.94809e-014
lhumerus -21.0071 -28.2484 91.506
lradius 94.3477
lwrist 11.3618
lhand -27.2398 32.8456
lfingers 7.12502
lthumb -0.65173 62.8244
rfemur -12.6907 3.01019 10.4419
rtibia 22.948
rfoot -14.0345 -11.2194
rtoes 4.05086
lfemur -5.72481 1.79766 -23.4561
ltibia 16.0093
lfoot -9.32162 5.09918
ltoes -12.6503
504
root 0.971885 18.0003 -1.11506 2.81084 -29.6383 1.50661
lowerback 2.10691 -0.100918 -3.51211
upperback 1.40974 -0.196919 1.51873
thorax 0.283819 -0.130059 3.53632
lowerneck -13.8753 2.50104 -10.1012
upperneck 32.5241 5.85236 1.30535
head 12.8686 1.40704 3.08133
rclavicle 7.7526e-015 3.18055e-015
rhumerus -23.1261 17.396 -83.75
rradius 100.729
rwrist 13.2707
rhand -22.1168 10.6009
rfingers 7.12502
rthumb 4.29602 -19.3355
lclavicle 7.7526e-015 3.18055e-015
lhumerus -21.2073 -28.1544 91.759
lradius 93.7283
lwrist 11.1786
lhand -26.661 32.6685
lfingers 7.12502
lthumb -0.0926923 62.6482
rfemur -12.6148 2.86359 10.4606
rtibia 22.9575
rfoot -14.0245 -11.2725
rtoes 4.01329
lfemur -5.68631 1.74341 -23.4475
ltibia 15.9769
lfoot -9.28508 4.99051
ltoes -12.8532
505
root 0.97252 18.0008 -1.11379 2.75881 -29.5643 1.5599
lowerback 2.2272 -0.116491 -3.6208
upperback 1.2952 -0.223982 1.58126
thorax 0.102038 -0.138591 3.66363
lowerneck -13.8605 2.48668 -10.1374
upperneck 32.6265 5.86807 1.23146
head 12.9118 1.39308 3.06371
rclavicle 2.99668e-014 2.38542e-015
rhumerus -22.771 18.2297 -83.7353
rradius 102.013
rwrist 13.8614
rhand -21.8464 10.6122
rfingers 7.12502
rthumb 4.5571 -19.3188
lclavicle 2.99668e-014 2.38542e-015
lhumerus -21.6627 -27.8991 92.2271
lradius 93.1441
lwrist 10.8754
lhand -26.369 32.3687
lfingers 7.12502
lthumb 0.189359 62.3484
rfemur -12.5598 2.80721 10.411
rtibia 22.9726
rfoot -14.0341 -11.2725
rtoes 3.65066
lfemur -5.64134 1.57521 -23.4845
ltibia 15.9279
lfoot -9.30509 5.02294
ltoes -12.1003
506
root 0.970732 18.0024 -1.11195 2.73528 -29.5336 1.6133
lowerback 2.24044 -0.12074 -3.69094
upperback 1.22429 -0.231639 1.58275
thorax 0.0228267 -0.139707 3.70519
lowerneck -13.8804 2.4576 -10.135
upperneck 32.707 5.84147 1.20098
head 12.9542 1.3721 3.05101
rclavicle -8.24956e-015 8.34896e-015
rhumerus -22.3346 18.9863 -83.7817
rradius 103.236
rwrist 14.4137
rhand -21.4241 10.8002
rfingers 7.12502
rthumb 4.96483 -19.1216
lclavicle -8.24956e-015 8.34896e-015
lhumerus -21.9975 -27.73 92.5182
lradius 92.5987
lwrist 10.7729
lhand -26.2332 31.8746
lfingers 7.12502
lthumb 0.320488 61.8541
rfemur -12.5514 2.83404 10.3574
rtibia 23.0043
rfoot -14.0859 -11.3172
rtoes 3.30248
lfemur -5.6021 1.47468 -23.5158
ltibia 15.8567
lfoot -9.34702 5.0222
ltoes -11.3746
507
root 0.969128 18.001 -1.10905 2.68118 -29.4501 1.73881
lowerback 2.15969 -0.135471 -3.75479
upperback 1.21934 -0.249639 1.51021
thorax 0.0646277 -0.149515 3.66623
lowerneck -13.8465 2.44567 -10.1052
upperneck 32.6624 5.79791 1.23598
head 12.9294 1.36457 3.05129
rclavicle -3.89618e-014 1.94809e-014
rhumerus -21.8286 19.7294 -83.8079
rradius 104.455
rwrist 14.7766
rhand -21.1886 11.1064
rfingers 7.12502
rthumb 5.19226 -18.8099
lclavicle -3.89618e-014 1.94809e-014
lhumerus -22.1714 -27.7429 92.6568
lradius 92.0677
lwrist 10.7852
lhand -26.2825 31.5201
lfingers 7.12502
lthumb 0.272907 61.4997
rfemur -12.5531 2.77846 10.2385
rtibia 23.0491
rfoot -14.0696 -11.2842
rtoes 3.65202
lfemur -5.56696 1.56587 -23.6423
ltibia 15.7739
lfoot -9.32118 4.87061
ltoes -11.8825
508
root 0.966898 17.9998 -1.10491 2.6314 -29.403 1.77752
lowerback 2.16275 -0.121615 -3.85761
upperback 1.18195 -0.233285 1.55101
thorax 0.0237818 -0.140321 3.76636
lowerneck -13.713 2.42632 -10.1513
upperneck 32.5823 5.77545 1.19063
head 12.8706 1.3492 3.03209
rclavicle 4.87519e-014 -2.42517e-014
rhumerus -21.4866 20.6039 -83.6739
rradius 105.714
rwrist 15.0695
rhand -21.0099 11.3087
rfingers 7.12502
rthumb 5.36478 -18.6034
lclavicle 4.87519e-014 -2.42517e-014
lhumerus -22.4218 -27.7673 92.9762
lradius 91.5407
lwrist 10.6978
lhand -26.3001 31.4346
lfingers 7.12502
lthumb 0.255904 61.4142
rfemur -12.5044 2.71798 10.2049
rtibia 23.0775
rfoot -14.1041 -11.1858
rtoes 4.73629
lfemur -5.48352 1.71306 -23.6929
ltibia 15.7008
lfoot -9.25692 4.74556
ltoes -12.4628
509
root 0.965874 17.9989 -1.10283 2.58898 -29.3855 1.82774
lowerback 2.11805 -0.117215 -3.8295
upperback 1.19649 -0.225215 1.47561
thorax 0.0624764 -0.136999 3.67203
lowerneck -13.7466 2.40026 -10.1296
upperneck 32.5472 5.71099 1.2655
head 12.8632 1.3356 3.04867
rclavicle -3.08116e-015 -7.95139e-015
rhumerus -20.7351 21.5492 -83.5976
rradius 106.718
rwrist 15.4441
rhand -20.7976 11.249
rfingers 7.12502
rthumb 5.56979 -18.6578
lclavicle -3.08116e-015 -7.95139e-015
lhumerus -22.6019 -27.7868 93.0689
lradius 91.1445
lwrist 10.6003
lhand -26.2457 31.5885
lfingers 7.12502
lthumb 0.308474 61.568
rfemur -12.4749 2.74189 10.1588
rtibia 23.0962
rfoot -14.1958 -11.2289
rtoes 5.17246
lfemur -5.42596 1.6023 -23.7333
ltibia 15.6379
lfoot -9.1952 4.82929
ltoes -11.9523
510
root 0.96431 18.0003 -1.1021 2.58409 -29.3526 1.8003
lowerback 2.03149 -0.0883654 -3.6281
upperback 1.29301 -0.179626 1.30357
thorax 0.204258 -0.117269 3.3791
lowerneck -14.0528 2.31477 -10.0537
upperneck 32.6035 5.53203 1.51299
head 12.9519 1.29429 3.11841
rclavicle -7.67309e-014 1.98785e-015
rhumerus -19.4459 22.4233 -83.5436
rradius 107.429
rwrist 15.9461
rhand -20.5857 11.1768
rfingers 7.12502
rthumb 5.77439 -18.7246
lclavicle -7.67309e-014 1.98785e-015
lhumerus -22.5908 -28.0097 92.907
lradius 90.7697
lwrist 10.6527
lhand -26.2531 31.517
lfingers 7.12502
lthumb 0.301338 61.4966
rfemur -12.4281 2.84588 10.1742
rtibia 23.0924
rfoot -14.3675 -11.2976
rtoes 5.55477
lfemur -5.38625 1.44407 -23.6878
ltibia 15.6202
lfoot -9.19213 4.91136
ltoes -11.4077
511
root 0.961544 18.0019 -1.0979 2.57123 -29.3363 1.75201
lowerback 1.98536 -0.0194862 -3.48043
upperback 1.35757 -0.0833733 1.19882
thorax 0.287438 -0.0705697 3.18581
lowerneck -14.2589 2.20192 -10.0298
upperneck 32.6046 5.33283 1.6946
head 13.0012 1.23343 3.16396
rclavicle 2.98177e-016 3.57812e-015
rhumerus -18.3661 23.1979 -83.3519
rradius 108.244
rwrist 16.5905
rhand -20.1914 11.3956
rfingers 7.12502
rthumb 6.15504 -18.495
lclavicle 2.98177e-016 3.57812e-015
lhumerus -22.6921 -28.2222 92.9388
lradius 90.3938
lwrist 10.6814
lhand -26.2616 31.262
lfingers 7.12502
lthumb 0.293118 61.2415
rfemur -12.3402 2.94067 10.2042
rtibia 23.0734
rfoot -14.4992 -11.2693
rtoes 6.28107
lfemur -5.32406 1.51862 -23.638
ltibia 15.6166
lfoot -9.22825 4.83515
ltoes -11.2317
512
root 0.958899 17.9985 -1.09348 2.5492 -29.2836 1.71907
lowerback 1.99801 -0.0166787 -3.45499
upperback 1.30335 -0.0799811 1.20164
thorax 0.224305 -0.066534 3.17439
lowerneck -14.1273 2.15517 -9.99079
upperneck 32.4797 5.26696 1.5858
head 12.9317 1.20253 3.09843
rclavicle -3.43401e-014 -1.98785e-015
rhumerus -17.809 24.1743 -83.1742
rradius 109.214
rwrist 17.3356
rhand -19.837 11.5792
rfingers 7.12502
rthumb 6.49713 -18.3011
lclavicle -3.43401e-014 -1.98785e-015
lhumerus -23.0962 -28.1931 93.226
lradius 90.1015
lwrist 10.6418
lhand -26.112 31.1592
lfingers 7.12502
lthumb 0.437553 61.1385
rfemur -12.264 2.92396 10.2555
rtibia 23.058
rfoot -14.4215 -11.3705
rtoes 5.43651
lfemur -5.26421 1.58967 -23.6024
ltibia 15.6011
lfoot -9.25405 4.74459
ltoes -11.2161
513
root 0.955985 17.9977 -1.0889 2.56545 -29.2251 1.70585
lowerback 1.97026 -0.0447775 -3.49297
upperback 1.2112 -0.117647 1.24712
thorax 0.148531 -0.082649 3.24343
lowerneck -13.9284 2.14065 -9.94838
upperneck 32.3123 5.26221 1.39498
head 12.8303 1.19059 3.00608
rclavicle -1.6847e-014 -1.31198e-014
rhumerus -17.2835 25.3016 -82.9533
rradius 110.129
rwrist 18.0869
rhand -19.7035 11.8193
rfingers 7.12502
rthumb 6.62605 -18.057
lclavicle -1.6847e-014 -1.31198e-014
lhumerus -23.5168 -28.0938 93.5243
lradius 89.7874
lwrist 10.5187
lhand -25.8592 30.9498
lfingers 7.12502
lthumb 0.68173 60.9285
rfemur -12.2435 2.83783 10.2892
rtibia 23.0527
rfoot -14.3803 -11.4221
rtoes 4.70573
lfemur -5.26119 1.52437 -23.5914
ltibia 15.5994
lfoot -9.24918 4.76282
ltoes -11.0946
